<svg width="28.000000" height="28.000000" viewBox="0 0 28 28" fill="none" xmlns="http://www.w3.org/2000/svg" xmlns:xlink="http://www.w3.org/1999/xlink">
	<desc>
			Created with Pixso.
	</desc>
	<defs>
		<clipPath id="clip178_24">
			<rect id="fi_12614558" rx="-0.500000" width="27.000000" height="27.000000" transform="translate(0.500000 0.500000)" fill="white" fill-opacity="0"/>
		</clipPath>
	</defs>
	<rect id="fi_12614558" rx="-0.500000" width="27.000000" height="27.000000" transform="translate(0.500000 0.500000)" fill="#FFFFFF" fill-opacity="0"/>
	<g clip-path="url(#clip178_24)">
		<path id="Vector" d="M11.43 3L15.1 3L15.1 7.76C15.1 7.99 15.2 8.21 15.38 8.35C15.57 8.48 15.8 8.53 16.02 8.47C17.19 8.14 18.04 7.99 18.84 7.98C19.48 7.98 20.11 8.07 20.88 8.28C21.01 11.1 20.98 16.65 20.8 19.71C22.1 19.33 23.09 18.26 23.26 16.9C23.62 14.05 23.62 11.7 23.26 8.88C23.05 7.18 21.54 5.93 19.77 5.93L19.29 5.93L20.04 6.61C19.63 6.55 19.24 6.52 18.84 6.52C18.11 6.52 17.38 6.63 16.56 6.82L16.56 3.47L17.66 4.46L19.77 4.46C22.22 4.46 24.41 6.21 24.72 8.7C25.09 11.64 25.09 14.11 24.72 17.08C24.42 19.45 22.44 21.14 20.14 21.31C20.1 21.32 20.05 21.33 20 21.33L17.46 21.33L17.9 23.53L19.13 23.53C19.53 23.53 19.86 23.86 19.86 24.26C19.86 24.67 19.53 25 19.13 25L8.86 25C8.46 25 8.13 24.67 8.13 24.26C8.13 23.86 8.46 23.53 8.86 23.53L10.09 23.53L10.53 21.33L8.22 21.33C5.75 21.33 3.56 19.56 3.26 17.04C2.91 14.12 2.91 11.66 3.25 8.74C3.55 6.23 5.75 4.46 8.22 4.46L8.39 4.46C9.1 3.56 10.21 3 11.43 3ZM7.67 5.97C6.13 6.2 4.89 7.38 4.71 8.91C4.38 11.72 4.38 14.06 4.71 16.87C4.89 18.36 6.06 19.52 7.54 19.8C7.4 16.31 7.35 9.3 7.6 6.47C7.61 6.3 7.64 6.13 7.67 5.97ZM9.96 12.53C9.96 12.12 10.29 11.8 10.7 11.8L11.43 11.8C11.83 11.8 12.16 12.12 12.16 12.53C12.16 12.93 11.83 13.26 11.43 13.26L10.7 13.26C10.29 13.26 9.96 12.93 9.96 12.53ZM10.7 14.73C10.29 14.73 9.96 15.06 9.96 15.46C9.96 15.87 10.29 16.2 10.7 16.2L11.43 16.2C11.83 16.2 12.16 15.87 12.16 15.46C12.16 15.06 11.83 14.73 11.43 14.73L10.7 14.73ZM12.89 12.53C12.89 12.12 13.22 11.8 13.63 11.8L15.83 11.8C16.23 11.8 16.56 12.12 16.56 12.53C16.56 12.93 16.23 13.26 15.83 13.26L13.63 13.26C13.22 13.26 12.89 12.93 12.89 12.53ZM13.63 14.73C13.22 14.73 12.89 15.06 12.89 15.46C12.89 15.87 13.22 16.2 13.63 16.2L17.29 16.2C17.7 16.2 18.03 15.87 18.03 15.46C18.03 15.06 17.7 14.73 17.29 14.73L13.63 14.73Z" fill="#6C6EE7" fill-opacity="1.000000" fill-rule="evenodd"/>
	</g>
</svg>
