<svg width="28.000000" height="28.000000" viewBox="0 0 28 28" fill="none" xmlns="http://www.w3.org/2000/svg" xmlns:xlink="http://www.w3.org/1999/xlink">
	<desc>
			Created with Pixso.
	</desc>
	<defs>
		<clipPath id="clip6_104">
			<rect id="fi_3401263" rx="-0.500000" width="27.000000" height="27.000000" transform="translate(0.500000 0.500000)" fill="white" fill-opacity="0"/>
		</clipPath>
	</defs>
	<rect id="fi_3401263" rx="-0.500000" width="27.000000" height="27.000000" transform="translate(0.500000 0.500000)" fill="#FFFFFF" fill-opacity="0"/>
	<g clip-path="url(#clip6_104)">
		<path id="Vector" d="M27.28 10.95L25.24 10.54C25.02 9.8 24.72 9.08 24.35 8.39L25.51 6.66C25.72 6.34 25.68 5.9 25.4 5.63L22.31 2.53C22.03 2.26 21.6 2.21 21.27 2.43L19.54 3.58C18.86 3.22 18.14 2.92 17.39 2.7L16.99 0.65C16.91 0.27 16.57 0 16.18 0L11.81 0C11.42 0 11.08 0.27 11 0.65L10.6 2.7C9.85 2.92 9.13 3.22 8.45 3.58L6.72 2.43C6.39 2.21 5.96 2.26 5.68 2.53L2.59 5.63C2.31 5.9 2.27 6.34 2.48 6.66L3.64 8.39C3.27 9.08 2.97 9.8 2.75 10.54L0.71 10.95C0.33 11.03 0.05 11.36 0.05 11.75L0.05 16.13C0.05 16.52 0.33 16.86 0.71 16.93L2.75 17.34C2.97 18.08 3.27 18.8 3.64 19.49L2.48 21.22C2.27 21.54 2.31 21.98 2.59 22.25L5.68 25.35C5.96 25.62 6.39 25.67 6.72 25.45L8.41 24.32L8.41 19.17C7.13 17.8 6.34 15.97 6.34 13.94C6.34 9.71 9.77 6.28 14 6.28C18.22 6.28 21.65 9.71 21.65 13.94C21.65 15.97 20.86 17.8 19.58 19.17L19.58 24.32L21.27 25.45C21.41 25.54 21.57 25.59 21.73 25.59C21.94 25.59 22.15 25.51 22.31 25.35L25.4 22.25C25.68 21.98 25.72 21.54 25.51 21.22L24.35 19.49C24.72 18.8 25.01 18.08 25.24 17.34L27.28 16.93C27.66 16.86 27.94 16.52 27.94 16.13L27.94 11.75C27.94 11.36 27.66 11.03 27.28 10.95Z" fill="#FFFFFF" fill-opacity="1.000000" fill-rule="nonzero"/>
		<path id="Vector" d="M16.59 9.45C16.18 9.21 15.66 9.46 15.59 9.93L15.09 13.39L12.9 13.39L12.4 9.93C12.33 9.46 11.81 9.21 11.4 9.45C9.79 10.37 8.8 12.1 8.8 13.94C8.8 15.94 9.92 17.73 11.72 18.61L11.81 18.65L11.81 27.17C11.81 27.63 12.17 28 12.63 28L15.36 28C15.82 28 16.18 27.63 16.18 27.17L16.18 18.65L16.27 18.61C18.07 17.73 19.19 15.94 19.19 13.94C19.19 12.1 18.2 10.37 16.59 9.45Z" fill="#FFFFFF" fill-opacity="1.000000" fill-rule="nonzero"/>
	</g>
</svg>
