<svg width="28" height="28" viewBox="0 0 28 28" fill="none" xmlns="http://www.w3.org/2000/svg">
<g clip-path="url(#clip0_269_66)">
<path d="M21.8007 14.7285C21.9583 16.224 21.7552 17.7715 21.1328 19.2332V19.2338L23.2932 22.0239C23.4865 22.2737 23.8491 22.3079 24.0885 22.102C26.0284 20.4326 27.3119 18.0228 27.5022 15.3112C27.5243 14.9955 27.2703 14.7286 26.9539 14.7286H21.8007V14.7285Z" fill="white"/>
<path d="M16.3765 0.549501V7.37196C18.2067 8.16403 19.726 9.5433 20.6961 11.2703H26.968C27.2781 11.2703 27.5291 11.0136 27.5171 10.7037C27.2938 4.90394 22.6697 0.290841 16.949 0.00070593C16.6369 -0.0151136 16.3765 0.23701 16.3765 0.549501Z" fill="white"/>
<path d="M12.8817 24.7608C7.88828 24.8124 3.76174 20.7639 3.72136 15.7703C3.68066 10.7377 7.76315 6.63025 12.7866 6.63025V3.95461C12.7866 3.64151 12.5252 3.39103 12.2124 3.40537C5.68414 3.70528 0.482477 9.09299 0.482422 15.6958C0.482422 22.5042 6.05903 28.0434 12.8673 27.9997C15.4349 27.9831 17.815 27.1806 19.7798 25.8206C20.0383 25.6417 20.0927 25.2817 19.9002 25.0331L18.2618 22.9168C16.7628 24.0557 14.9005 24.7399 12.8817 24.7608Z" fill="white"/>
<path d="M5.36865 15.6959C5.36865 19.7859 8.69625 23.1135 12.7863 23.1135C16.8758 23.1135 20.2039 19.7866 20.2039 15.6959C20.2039 11.606 16.8758 8.27832 12.7863 8.27832C8.69625 8.27832 5.36865 11.6059 5.36865 15.6959ZM13.6102 10.7683V11.5543C14.4549 11.5543 15.2026 11.9136 15.7299 12.476C16.0408 12.8078 16.0238 13.3296 15.692 13.6405C15.3623 13.9494 14.843 13.9376 14.5275 13.6026C14.2913 13.351 13.9694 13.2049 13.6437 13.2022C12.977 13.2022 12.5263 13.2022 11.8624 13.2022C11.4006 13.2022 11.0274 13.5763 11.0274 14.0371C11.0274 14.4974 11.4021 14.872 11.8629 14.872H13.7102C15.079 14.872 16.193 15.986 16.193 17.3548C16.193 18.6339 15.2091 19.8381 13.6102 19.8381V20.6236C13.6102 21.0784 13.2416 21.4475 12.7863 21.4475C12.3315 21.4475 11.9623 21.0784 11.9623 20.6236V19.8381C11.3819 19.8381 10.8101 19.7753 10.1403 19.3108C9.76682 19.0515 9.67399 18.538 9.93325 18.1644C10.1925 17.7904 10.7061 17.6975 11.0796 17.9568C11.2774 18.0952 11.523 18.1871 11.7673 18.1903H13.7102C14.169 18.1903 14.5451 17.8198 14.5451 17.3548C14.5451 16.8945 14.1705 16.5199 13.7102 16.5199C12.8927 16.5199 12.7242 16.5199 11.8629 16.5199C10.4935 16.5199 9.37957 15.4059 9.37957 14.0371C9.37957 12.754 10.3669 11.5543 11.9623 11.5543V10.7683C11.9623 10.3134 12.3315 9.94432 12.7863 9.94432C13.2416 9.94432 13.6102 10.3134 13.6102 10.7683Z" fill="white"/>
</g>
<defs>
<clipPath id="clip0_269_66">
<rect width="28" height="28" fill="white"/>
</clipPath>
</defs>
</svg>
