<svg width="28.000000" height="28.000000" viewBox="0 0 28 28" fill="none" xmlns="http://www.w3.org/2000/svg" xmlns:xlink="http://www.w3.org/1999/xlink">
	<desc>
			Created with Pixso.
	</desc>
	<defs>
		<clipPath id="clip6_125">
			<rect id="fi_8683638" width="28.000000" height="28.000000" fill="white" fill-opacity="0"/>
		</clipPath>
	</defs>
	<rect id="fi_8683638" width="28.000000" height="28.000000" fill="#FFFFFF" fill-opacity="0"/>
	<g clip-path="url(#clip6_125)">
		<path id="Vector" d="M19.95 2.42C19.65 2.26 19.31 2.19 18.96 2.21C18.62 2.24 18.29 2.36 18.01 2.56C17.78 2.74 17.49 2.83 17.2 2.82C16.85 2.83 16.51 2.69 16.26 2.45C15.7 2 15 1.75 14.28 1.75C13.56 1.75 12.87 2 12.31 2.45C12.05 2.69 11.71 2.82 11.37 2.82C11.02 2.82 10.68 2.69 10.43 2.45C9.87 2 9.17 1.75 8.45 1.75C7.73 1.75 7.04 2 6.48 2.45C6.22 2.69 5.88 2.83 5.53 2.82C5.25 2.83 4.96 2.74 4.74 2.56C4.46 2.36 4.13 2.24 3.78 2.21C3.44 2.19 3.09 2.26 2.79 2.43C2.47 2.59 2.21 2.84 2.02 3.14C1.84 3.44 1.74 3.79 1.75 4.14L1.75 22.58C1.75 23.09 1.95 23.57 2.3 23.93C2.66 24.29 3.14 24.5 3.65 24.5L15.33 24.5C14.46 23.37 13.99 21.98 14 20.56C14 18.82 14.69 17.15 15.92 15.92C17.15 14.69 18.82 14 20.56 14C20.7 14 20.85 14 21 14.02L21 4.13C21 3.78 20.9 3.43 20.72 3.13C20.53 2.83 20.27 2.58 19.95 2.42ZM6.64 18.72C6.44 18.72 6.23 18.66 6.06 18.54C5.89 18.43 5.75 18.26 5.68 18.07C5.6 17.88 5.57 17.67 5.62 17.47C5.66 17.26 5.76 17.07 5.9 16.93C6.05 16.78 6.24 16.68 6.44 16.64C6.64 16.6 6.85 16.62 7.05 16.7C7.24 16.78 7.4 16.91 7.52 17.09C7.63 17.26 7.7 17.46 7.7 17.67C7.7 17.95 7.58 18.22 7.39 18.41C7.19 18.61 6.92 18.72 6.64 18.72ZM6.64 14.35C6.44 14.35 6.23 14.28 6.06 14.17C5.89 14.05 5.75 13.89 5.68 13.7C5.6 13.51 5.57 13.29 5.62 13.09C5.66 12.89 5.76 12.7 5.9 12.55C6.05 12.41 6.24 12.31 6.44 12.27C6.64 12.22 6.85 12.25 7.05 12.32C7.24 12.4 7.4 12.54 7.52 12.71C7.63 12.88 7.7 13.09 7.7 13.3C7.7 13.57 7.58 13.84 7.39 14.04C7.19 14.23 6.92 14.35 6.64 14.35ZM6.64 9.8C6.44 9.79 6.23 9.73 6.06 9.62C5.89 9.5 5.75 9.34 5.67 9.14C5.6 8.95 5.57 8.74 5.62 8.54C5.66 8.33 5.76 8.15 5.91 8C6.05 7.85 6.24 7.75 6.45 7.71C6.65 7.67 6.86 7.7 7.05 7.78C7.24 7.86 7.41 7.99 7.52 8.17C7.64 8.34 7.7 8.55 7.7 8.75C7.69 8.89 7.67 9.03 7.61 9.15C7.56 9.28 7.48 9.4 7.39 9.49C7.29 9.59 7.17 9.67 7.05 9.72C6.92 9.77 6.78 9.8 6.64 9.8ZM12.25 18.54L9.79 18.54C9.56 18.54 9.34 18.45 9.18 18.29C9.01 18.12 8.92 17.9 8.92 17.67C8.92 17.44 9.01 17.22 9.18 17.05C9.34 16.89 9.56 16.79 9.79 16.79L12.25 16.79C12.48 16.79 12.7 16.89 12.86 17.05C13.03 17.22 13.12 17.44 13.12 17.67C13.12 17.9 13.03 18.12 12.86 18.29C12.7 18.45 12.48 18.54 12.25 18.54ZM16.27 14.17L9.79 14.17C9.56 14.17 9.34 14.08 9.18 13.91C9.01 13.75 8.92 13.53 8.92 13.3C8.92 13.06 9.01 12.84 9.18 12.68C9.34 12.51 9.56 12.42 9.79 12.42L16.27 12.42C16.5 12.42 16.72 12.51 16.89 12.68C17.05 12.84 17.14 13.06 17.14 13.3C17.14 13.53 17.05 13.75 16.89 13.91C16.72 14.08 16.5 14.17 16.27 14.17ZM16.27 9.63L9.79 9.63C9.56 9.63 9.34 9.54 9.18 9.37C9.01 9.21 8.92 8.99 8.92 8.75C8.92 8.52 9.01 8.3 9.18 8.14C9.34 7.97 9.56 7.88 9.79 7.88L16.27 7.88C16.5 7.88 16.72 7.97 16.89 8.14C17.05 8.3 17.14 8.52 17.14 8.75C17.14 8.99 17.05 9.21 16.89 9.37C16.72 9.54 16.5 9.63 16.27 9.63Z" fill="#FFFFFF" fill-opacity="1.000000" fill-rule="nonzero"/>
		<path id="Vector" d="M20.56 14.87C19.43 14.87 18.33 15.2 17.4 15.83C16.46 16.45 15.73 17.34 15.3 18.38C14.87 19.42 14.76 20.56 14.98 21.67C15.2 22.77 15.74 23.78 16.54 24.58C17.33 25.37 18.34 25.92 19.45 26.14C20.55 26.36 21.69 26.24 22.73 25.81C23.77 25.38 24.66 24.65 25.29 23.72C25.91 22.78 26.25 21.68 26.25 20.56C26.24 19.05 25.64 17.6 24.58 16.54C23.51 15.47 22.07 14.87 20.56 14.87ZM22.93 20.01L20.59 22.34C20.51 22.42 20.42 22.49 20.31 22.53C20.2 22.58 20.09 22.6 19.97 22.6C19.86 22.6 19.75 22.58 19.64 22.53C19.53 22.49 19.44 22.42 19.36 22.34L18.19 21.18C18.03 21.01 17.94 20.79 17.94 20.56C17.95 20.33 18.04 20.11 18.2 19.95C18.36 19.79 18.58 19.7 18.81 19.69C19.04 19.69 19.26 19.78 19.43 19.94L19.97 20.49L21.69 18.77C21.77 18.69 21.87 18.63 21.97 18.58C22.08 18.54 22.19 18.52 22.31 18.52C22.42 18.52 22.54 18.54 22.64 18.58C22.75 18.63 22.85 18.69 22.93 18.77C23.01 18.85 23.07 18.95 23.12 19.06C23.16 19.16 23.18 19.28 23.18 19.39C23.18 19.51 23.16 19.62 23.12 19.73C23.07 19.83 23.01 19.93 22.93 20.01Z" fill="#FFFFFF" fill-opacity="1.000000" fill-rule="nonzero"/>
	</g>
</svg>
