<svg width="75.999512" height="27.002548" viewBox="0 0 75.9995 27.0025" fill="none" xmlns="http://www.w3.org/2000/svg" xmlns:xlink="http://www.w3.org/1999/xlink">
	<desc>
			Created with Pixso.
	</desc>
	<defs>
		<clipPath id="clip8_131">
			<rect id="logo" width="25.202383" height="27.002552" fill="white" fill-opacity="0"/>
		</clipPath>
	</defs>
	<path id="PAY" d="M34.67 22.4L34.67 7.28L40.56 7.28Q42.55 7.28 43.96 7.9Q45.02 8.38 45.71 9.18Q45.93 9.43 46.12 9.72Q46.15 9.77 46.18 9.82Q46.87 10.97 46.87 12.55Q46.87 14.12 46.18 15.28Q46.15 15.33 46.12 15.38C45.61 16.15 44.89 16.76 43.96 17.19Q42.55 17.82 40.56 17.82L36.83 17.82L36.83 22.4L34.67 22.4ZM47 22.4L53.84 7.28L55.98 7.28L62.85 22.4L60.58 22.4L58.92 18.62L50.88 18.62L49.22 22.4L47 22.4ZM67.85 17.13L67.85 22.4L69.99 22.4L69.99 17.16L75.99 7.28L73.86 7.28L69 15.25L64.16 7.28L61.85 7.28L67.85 17.13ZM40.5 15.94L36.83 15.94L36.83 9.16L40.5 9.16Q42.57 9.16 43.63 10.04Q43.96 10.31 44.19 10.64Q44.71 11.42 44.71 12.55C44.71 13.63 44.35 14.46 43.63 15.05C42.93 15.64 41.88 15.94 40.5 15.94ZM54.9 9.47L58.16 16.89L51.64 16.89L54.9 9.47Z" fill="#FFFFFF" fill-opacity="1.000000" fill-rule="evenodd"/>
	<g clip-path="url(#clip8_131)">
		<path id="Vector" d="M29.38 25.71L3.96 25.21C3.56 25.2 3.19 25.08 2.84 24.84C2.49 24.62 2.22 24.31 2.03 23.92C1.84 23.54 1.76 23.14 1.79 22.71C1.82 22.3 1.95 21.93 2.17 21.6L17.26 1.15L19.48 5.64L8.19 20.88L27.17 21.24L29.38 25.71Z" fill="#5752D8" fill-opacity="1.000000" fill-rule="nonzero"/>
		<path id="Vector" d="M27.93 24.31L2.51 23.81C2.12 23.79 1.75 23.67 1.4 23.43C1.05 23.21 0.77 22.9 0.58 22.51C0.39 22.13 0.32 21.73 0.35 21.3C0.38 20.89 0.5 20.52 0.73 20.19L15.82 -0.26L18.03 4.23L6.74 19.47L25.72 19.83L27.93 24.31Z" fill="#C7D2FE" fill-opacity="1.000000" fill-rule="nonzero"/>
		<path id="Rectangle 4307" d="M18.69 20.56L20.43 20.59L20.41 22.33L18.66 22.31L18.69 20.56Z" fill="#9BA9FB" fill-opacity="1.000000" fill-rule="nonzero"/>
		<path id="Rectangle 4308" d="M15.25 20.52L17 20.54L16.97 22.28L15.23 22.26L15.25 20.52Z" fill="#9BA9FB" fill-opacity="1.000000" fill-rule="nonzero"/>
		<path id="Rectangle 4309" d="M11.71 20.47L13.46 20.49L13.44 22.24L11.69 22.21L11.71 20.47Z" fill="#9BA9FB" fill-opacity="1.000000" fill-rule="nonzero"/>
	</g>
</svg>
