<svg width="28.000000" height="28.000000" viewBox="0 0 28 28" fill="none" xmlns="http://www.w3.org/2000/svg" xmlns:xlink="http://www.w3.org/1999/xlink">
	<desc>
			Created with Pixso.
	</desc>
	<defs>
		<clipPath id="clip247_20">
			<rect id="fi_12701260" rx="-0.500000" width="27.000000" height="27.000000" transform="translate(0.500000 0.500000)" fill="white" fill-opacity="0"/>
		</clipPath>
	</defs>
	<rect id="fi_12701260" rx="-0.500000" width="27.000000" height="27.000000" transform="translate(0.500000 0.500000)" fill="#FFFFFF" fill-opacity="0"/>
	<g clip-path="url(#clip247_20)">
		<path id="Vector" d="M13.88 18.37L15.31 23.62L23.62 23.62C23.62 23.48 23.64 23.34 23.67 23.2L24.88 18.37L13.88 18.37Z" fill="#6C6EE7" fill-opacity="1.000000" fill-rule="evenodd"/>
		<path id="Vector" d="M17.5 25.37C18.22 25.37 18.81 25.96 18.81 26.68C18.81 27.41 18.22 28 17.5 28C16.77 28 16.18 27.41 16.18 26.68C16.18 25.96 16.77 25.37 17.5 25.37ZM22.75 25.37C23.47 25.37 24.06 25.96 24.06 26.68C24.06 27.41 23.47 28 22.75 28C22.02 28 21.43 27.41 21.43 26.68C21.43 25.96 22.02 25.37 22.75 25.37ZM28 14C28 13.29 27.94 12.58 27.83 11.88C27.78 11.56 27.55 11.29 27.24 11.18L24.78 10.38C24.61 9.88 24.41 9.4 24.18 8.93C24.18 8.93 25.35 6.62 25.35 6.62C25.5 6.32 25.47 5.97 25.27 5.7C24.44 4.56 23.43 3.55 22.29 2.71C22.02 2.52 21.67 2.49 21.37 2.64L19.06 3.81C18.59 3.58 18.11 3.38 17.61 3.21C17.61 3.21 16.81 0.75 16.81 0.75C16.7 0.43 16.44 0.2 16.11 0.16C14.71 -0.06 13.28 -0.06 11.88 0.16C11.56 0.2 11.29 0.43 11.18 0.75L10.38 3.21C9.88 3.38 9.4 3.58 8.92 3.81C8.93 3.81 6.62 2.64 6.62 2.64C6.32 2.49 5.97 2.52 5.7 2.71C4.56 3.55 3.56 4.56 2.72 5.7C2.52 5.97 2.49 6.32 2.64 6.62L3.81 8.93C3.58 9.4 3.38 9.88 3.21 10.38C3.21 10.38 0.75 11.18 0.75 11.18C0.44 11.29 0.2 11.56 0.16 11.88C-0.06 13.28 -0.06 14.71 0.16 16.11C0.2 16.43 0.44 16.7 0.75 16.81L3.21 17.61C3.38 18.11 3.58 18.59 3.81 19.06C3.81 19.06 2.64 21.37 2.64 21.37C2.49 21.67 2.52 22.02 2.72 22.29C3.56 23.43 4.56 24.44 5.7 25.28C5.97 25.47 6.32 25.5 6.62 25.35L8.93 24.18C9.4 24.41 9.88 24.61 10.38 24.78C10.38 24.78 11.18 27.24 11.18 27.24C11.29 27.56 11.56 27.79 11.88 27.83C12.73 27.97 13.6 28.02 14.46 27.99C14.94 27.97 15.32 27.57 15.31 27.08C15.29 26.6 14.89 26.22 14.4 26.24C13.83 26.26 13.25 26.24 12.67 26.17L11.9 23.81C11.81 23.53 11.59 23.32 11.31 23.24C10.63 23.04 9.97 22.77 9.35 22.43C9.1 22.29 8.8 22.28 8.54 22.41L6.32 23.54C5.63 22.99 5 22.36 4.45 21.67L5.58 19.45C5.71 19.19 5.7 18.89 5.56 18.64C5.22 18.01 4.95 17.36 4.75 16.68C4.67 16.4 4.46 16.18 4.18 16.09L1.81 15.32C1.72 14.44 1.72 13.55 1.81 12.67L4.18 11.9C4.46 11.81 4.67 11.59 4.75 11.31C4.95 10.63 5.22 9.98 5.56 9.35C5.7 9.1 5.71 8.8 5.58 8.54L4.45 6.32C5 5.63 5.63 5 6.32 4.45C6.32 4.45 8.54 5.58 8.54 5.58C8.8 5.71 9.1 5.7 9.35 5.56C9.97 5.22 10.63 4.95 11.31 4.75C11.59 4.67 11.81 4.46 11.9 4.18L12.67 1.82C13.55 1.72 14.44 1.72 15.32 1.82L16.09 4.18C16.18 4.46 16.4 4.67 16.68 4.75C17.36 4.95 18.02 5.22 18.64 5.56C18.89 5.7 19.2 5.71 19.45 5.58L21.67 4.45C22.36 5 22.99 5.63 23.54 6.32L22.41 8.54C22.28 8.8 22.29 9.1 22.43 9.35C22.77 9.98 23.04 10.63 23.24 11.31C23.32 11.59 23.53 11.81 23.81 11.9L26.17 12.67C26.22 13.11 26.25 13.55 26.25 14C26.25 14.48 26.64 14.87 27.12 14.87C27.6 14.87 28 14.48 28 14ZM14.06 15.75L13.53 13.76C13.42 13.38 13.08 13.12 12.68 13.12L10.93 13.12C10.45 13.12 10.06 13.51 10.06 14C10.06 14.48 10.45 14.87 10.93 14.87L12.01 14.87L14.46 23.85C14.57 24.23 14.91 24.5 15.31 24.5L25.37 24.5C25.77 24.5 26.12 24.22 26.22 23.83L27.97 16.83C28.03 16.57 27.97 16.29 27.81 16.08C27.64 15.87 27.39 15.75 27.12 15.75L14.06 15.75ZM14.55 17.5L15.98 22.75L24.69 22.75L26 17.5L14.55 17.5ZM17.5 19.25L17.5 21C17.5 21.48 17.89 21.87 18.37 21.87C18.85 21.87 19.25 21.48 19.25 21L19.25 19.25C19.25 18.76 18.85 18.37 18.37 18.37C17.89 18.37 17.5 18.76 17.5 19.25ZM21 19.25L21 21C21 21.48 21.39 21.87 21.87 21.87C22.35 21.87 22.75 21.48 22.75 21L22.75 19.25C22.75 18.76 22.35 18.37 21.87 18.37C21.39 18.37 21 18.76 21 19.25ZM11.78 18.27C10.24 17.46 9.18 15.85 9.18 14C9.18 11.34 11.34 9.18 14 9.18C16.65 9.18 18.81 11.34 18.81 14C18.81 14.48 19.2 14.87 19.68 14.87C20.16 14.87 20.56 14.48 20.56 14C20.56 10.37 17.62 7.43 14 7.43C10.37 7.43 7.43 10.37 7.43 14C7.43 16.52 8.87 18.72 10.97 19.82C11.39 20.04 11.92 19.87 12.14 19.45C12.37 19.02 12.2 18.49 11.78 18.27Z" fill="#FFFFFF" fill-opacity="1.000000" fill-rule="evenodd"/>
	</g>
</svg>
