<svg width="28.000000" height="28.000000" viewBox="0 0 28 28" fill="none" xmlns="http://www.w3.org/2000/svg" xmlns:xlink="http://www.w3.org/1999/xlink">
	<desc>
			Created with Pixso.
	</desc>
	<defs>
		<clipPath id="clip4_34">
			<rect id="fi_13903250" width="28.000000" height="28.000000" fill="white" fill-opacity="0"/>
		</clipPath>
	</defs>
	<rect id="fi_13903250" width="28.000000" height="28.000000" fill="#FFFFFF" fill-opacity="0"/>
	<g clip-path="url(#clip4_34)">
		<path id="Vector" d="M2.21 1.51C2.32 1.13 2.66 0.87 3.06 0.87L24.93 0.87C25.33 0.87 25.67 1.13 25.78 1.51L27.09 6.33C27.11 6.4 27.12 6.48 27.12 6.56C27.12 7.72 26.61 8.77 25.81 9.49L25.81 11.48C25.81 11.96 25.42 12.35 24.93 12.35C24.45 12.35 24.06 11.96 24.06 11.48L24.06 10.4C23.78 10.46 23.48 10.5 23.18 10.5C21.95 10.5 20.84 9.92 20.12 9.03C19.4 9.92 18.29 10.5 17.06 10.5C15.82 10.5 14.72 9.92 14 9.03C13.27 9.92 12.17 10.5 10.93 10.5C9.7 10.5 8.59 9.92 7.87 9.03C7.15 9.92 6.04 10.5 4.81 10.5C4.51 10.5 4.21 10.46 3.93 10.4L3.93 22.75C3.93 24.19 5.11 25.37 6.56 25.37L11.81 25.37C12.29 25.37 12.68 25.76 12.68 26.25C12.68 26.73 12.29 27.12 11.81 27.12L6.56 27.12C4.14 27.12 2.18 25.16 2.18 22.75L2.18 9.49C1.38 8.77 0.87 7.72 0.87 6.56C0.87 6.48 0.88 6.4 0.9 6.33L2.21 1.51Z" fill="#FFFFFF" fill-opacity="1.000000" fill-rule="nonzero"/>
		<path id="Vector" d="M18.45 12.25C17.97 12.25 17.58 12.64 17.58 13.12L17.58 14.6L16.53 13.55C16.37 13.39 16.14 13.3 15.91 13.3C15.68 13.3 15.46 13.39 15.29 13.55L13.55 15.29C13.21 15.64 13.21 16.19 13.55 16.53L14.6 17.58L13.12 17.58C12.64 17.58 12.25 17.97 12.25 18.45L12.25 20.91C12.25 21.4 12.64 21.79 13.12 21.79L14.6 21.79L13.55 22.83C13.39 23 13.3 23.22 13.3 23.45C13.3 23.68 13.39 23.91 13.55 24.07L15.29 25.81C15.46 25.98 15.68 26.07 15.91 26.07C16.14 26.07 16.37 25.98 16.53 25.81L17.58 24.77L17.58 26.25C17.58 26.73 17.97 27.12 18.45 27.12L20.91 27.12C21.4 27.12 21.79 26.73 21.79 26.25L21.79 24.77L22.83 25.81C23.18 26.15 23.73 26.15 24.07 25.81L25.81 24.07C25.98 23.91 26.07 23.68 26.07 23.45C26.07 23.22 25.98 23 25.81 22.83L24.77 21.79L26.25 21.79C26.73 21.79 27.12 21.4 27.12 20.91L27.12 18.45C27.12 17.97 26.73 17.58 26.25 17.58L24.77 17.58L25.81 16.53C25.98 16.37 26.07 16.14 26.07 15.91C26.07 15.68 25.98 15.46 25.81 15.29L24.07 13.55C23.73 13.21 23.18 13.21 22.83 13.55L21.79 14.6L21.79 13.12C21.79 12.64 21.4 12.25 20.91 12.25L18.45 12.25ZM21 19.68C21 20.41 20.41 21 19.68 21C18.96 21 18.37 20.41 18.37 19.68C18.37 18.96 18.96 18.37 19.68 18.37C20.41 18.37 21 18.96 21 19.68Z" fill="#FFFFFF" fill-opacity="1.000000" fill-rule="evenodd"/>
	</g>
</svg>
