<svg width="28" height="28" viewBox="0 0 28 28" fill="none" xmlns="http://www.w3.org/2000/svg">
<path fill-rule="evenodd" clip-rule="evenodd" d="M15.75 1.75269H7C5.55013 1.75269 4.375 2.92781 4.375 4.37769V22.176C4.375 23.1858 4.95425 24.1063 5.86513 24.5429C6.776 24.9795 7.85576 24.8553 8.64326 24.2227L9.07724 23.8744C9.39749 23.6181 9.85251 23.6181 10.1728 23.8744L12.3585 25.6297C13.3175 26.3997 14.6816 26.4006 15.6424 25.6323L17.8299 23.8823C18.1492 23.6268 18.6025 23.6259 18.9219 23.8814L19.3751 24.2428C20.1635 24.8719 21.2424 24.9935 22.1515 24.556C23.0597 24.1185 23.6373 23.1989 23.6373 22.1909V9.62505H18.375C17.6785 9.62505 17.0109 9.34856 16.5191 8.85593C16.0265 8.36418 15.75 7.69656 15.75 7.00005V1.75269ZM16.3984 20.7139L18.9936 18.1187C19.2439 17.8684 19.3191 17.4922 19.1835 17.1649C19.0479 16.8386 18.7285 16.6251 18.375 16.6251H9.625C9.142 16.6251 8.75 17.0171 8.75 17.5001C8.75 17.9831 9.142 18.3751 9.625 18.3751H16.2627L15.1611 19.4767C14.819 19.8179 14.819 20.3727 15.1611 20.7139C15.5024 21.0561 16.0571 21.0561 16.3984 20.7139ZM11.6016 10.7862L9.00637 13.3814C8.75612 13.6317 8.68088 14.0079 8.8165 14.3352C8.95213 14.6616 9.2715 14.8751 9.625 14.8751H18.375C18.858 14.8751 19.25 14.4831 19.25 14.0001C19.25 13.5171 18.858 13.1251 18.375 13.1251H11.7373L12.8389 12.0234C13.181 11.6822 13.181 11.1274 12.8389 10.7862C12.4976 10.4441 11.9429 10.4441 11.6016 10.7862ZM17.5 1.85768V7.00005C17.5 7.23193 17.5919 7.45506 17.7564 7.61868C17.92 7.78318 18.1431 7.87505 18.375 7.87505H23.5349C23.4124 7.4498 23.1831 7.05868 22.8638 6.74193L18.6165 2.51656C18.3024 2.20419 17.9174 1.97931 17.5 1.85768Z" fill="white"/>
</svg>
