<svg width="32.000000" height="32.000000" viewBox="0 0 32 32" fill="none" xmlns="http://www.w3.org/2000/svg" xmlns:xlink="http://www.w3.org/1999/xlink">
	<desc>
			Created with Pixso.
	</desc>
	<defs>
		<clipPath id="clip251_252">
			<rect id="icons8:plus" width="32.000000" height="32.000000" fill="white" fill-opacity="0"/>
		</clipPath>
	</defs>
	<rect id="icons8:plus" width="32.000000" height="32.000000" fill="#FFFFFF" fill-opacity="0"/>
	<g clip-path="url(#clip251_252)">
		<path id="Vector" d="M16 3C8.83 3 3 8.83 3 16C3 23.16 8.83 29 16 29C23.16 29 29 23.16 29 16C29 8.83 23.16 3 16 3ZM16 5C22.08 5 27 9.91 27 16C27 22.08 22.08 27 16 27C9.91 27 5 22.08 5 16C5 9.91 9.91 5 16 5ZM15 10L15 15L10 15L10 17L15 17L15 22L17 22L17 17L22 17L22 15L17 15L17 10L15 10Z" fill="#9BA9FB" fill-opacity="1.000000" fill-rule="nonzero"/>
	</g>
</svg>
