<svg width="28" height="28" viewBox="0 0 28 28" fill="none" xmlns="http://www.w3.org/2000/svg">
<path d="M5.83366 14L10.5003 9.33333M5.83366 14L10.5003 18.6667M5.83366 14H17.5003M11.667 24.5C13.0459 24.5 14.4112 24.2284 15.6852 23.7007C16.9591 23.1731 18.1166 22.3996 19.0916 21.4246C20.0666 20.4496 20.8401 19.2921 21.3677 18.0182C21.8954 16.7443 22.167 15.3789 22.167 14C22.167 12.6211 21.8954 11.2557 21.3677 9.98182C20.8401 8.70791 20.0666 7.55039 19.0916 6.57538C18.1166 5.60036 16.9591 4.82694 15.6852 4.29926C14.4112 3.77159 13.0459 3.5 11.667 3.5" stroke="#6C6EE7" stroke-width="2" stroke-linecap="round" stroke-linejoin="round"/>
</svg>
