<svg width="166.353027" height="35.000000" viewBox="0 0 166.353 35" fill="none" xmlns="http://www.w3.org/2000/svg" xmlns:xlink="http://www.w3.org/1999/xlink">
	<desc>
			Created with Pixso.
	</desc>
	<defs>
		<clipPath id="clip328_434">
			<rect rx="17.000000" width="34.000000" height="34.000000" transform="translate(0.500000 0.500000)" fill="white" fill-opacity="0"/>
		</clipPath>
		<clipPath id="clip328_439">
			<rect rx="17.000000" width="34.000000" height="34.000000" transform="translate(0.500000 0.500000)" fill="white" fill-opacity="0"/>
		</clipPath>
		<linearGradient x1="24.741377" y1="1.810345" x2="8.673239" y2="30.474138" id="paint_linear_328_434_0" gradientUnits="userSpaceOnUse">
			<stop stop-color="#9FADFC"/>
			<stop offset="0.617168" stop-color="#97A5FA"/>
			<stop offset="0.986817" stop-color="#6C6EE7"/>
		</linearGradient>
		<linearGradient x1="24.741377" y1="1.810345" x2="8.673239" y2="30.474138" id="paint_linear_328_439_0" gradientUnits="userSpaceOnUse">
			<stop stop-color="#9FADFC"/>
			<stop offset="0.617168" stop-color="#97A5FA"/>
			<stop offset="0.986817" stop-color="#6C6EE7"/>
		</linearGradient>
	</defs>
	<rect rx="17.000000" width="34.000000" height="34.000000" transform="translate(0.500000 0.500000)" fill="#97A5FA" fill-opacity="1.000000"/>
	<rect rx="17.000000" width="34.000000" height="34.000000" transform="translate(0.500000 0.500000)" fill="url(#paint_linear_328_434_0)" fill-opacity="1.000000"/>
	<g clip-path="url(#clip328_434)">
		<path d="M28 35L2.35 21.6C1.95 21.39 1.64 21.08 1.4 20.66C1.16 20.25 1.03 19.8 1.03 19.3C1.03 18.81 1.16 18.36 1.4 17.94C1.64 17.53 1.95 17.21 2.35 16.99L28 3.62L28 9.36L8.84 19.3L28 29.28L28 35Z" fill="#3328BA" fill-opacity="0.500000" fill-rule="nonzero"/>
		<path d="M26.96 33.37L1.31 19.98C0.92 19.77 0.6 19.46 0.37 19.03C0.12 18.63 0 18.17 0 17.67C0 17.19 0.12 16.73 0.37 16.31C0.6 15.91 0.92 15.59 1.31 15.37L26.96 2L26.96 7.73L7.8 17.67L26.96 27.65L26.96 33.37Z" fill="#C7D2FE" fill-opacity="1.000000" fill-rule="nonzero"/>
		<rect x="19.000000" y="23.000000" width="2.000000" height="2.000000" fill="#9BA9FB" fill-opacity="1.000000"/>
		<rect x="15.000000" y="21.000000" width="2.000000" height="2.000000" fill="#9BA9FB" fill-opacity="1.000000"/>
		<rect x="11.000000" y="19.000000" width="2.000000" height="2.000000" fill="#9BA9FB" fill-opacity="1.000000"/>
	</g>
	<rect rx="17.000000" width="34.000000" height="34.000000" transform="translate(0.500000 0.500000)" fill="#97A5FA" fill-opacity="1.000000"/>
	<rect rx="17.000000" width="34.000000" height="34.000000" transform="translate(0.500000 0.500000)" fill="url(#paint_linear_328_439_0)" fill-opacity="1.000000"/>
	<g clip-path="url(#clip328_439)">
		<path d="M39.89 28.82L6.48 28.16C5.96 28.15 5.47 27.99 5.02 27.67C4.55 27.38 4.19 26.98 3.94 26.46C3.69 25.96 3.59 25.43 3.63 24.87C3.67 24.33 3.84 23.85 4.14 23.41L23.97 -3.47L26.88 2.44L12.04 22.47L36.98 22.94L39.89 28.82Z" fill="#3328BA" fill-opacity="0.500000" fill-rule="nonzero"/>
		<path d="M37.99 27.68L4.58 27.02C4.06 27.01 3.57 26.85 3.12 26.53C2.65 26.24 2.29 25.84 2.04 25.32C1.79 24.82 1.69 24.29 1.73 23.73C1.77 23.19 1.94 22.71 2.24 22.27L22.07 -4.61L24.98 1.3L10.14 21.33L35.08 21.8L37.99 27.68Z" fill="#C7D2FE" fill-opacity="1.000000" fill-rule="nonzero"/>
		<rect x="23.850098" y="24.045959" width="2.000000" height="2.000000" transform="rotate(2.0082 23.850098 24.045959)" fill="#9BA9FB" fill-opacity="1.000000"/>
		<rect x="18.853027" y="23.870758" width="2.000000" height="2.000000" transform="rotate(2.0082 18.853027 23.870758)" fill="#9BA9FB" fill-opacity="1.000000"/>
		<rect x="13.856445" y="23.695541" width="2.000000" height="2.000000" transform="rotate(2.0082 13.856445 23.695541)" fill="#9BA9FB" fill-opacity="1.000000"/>
	</g>
	<path d="M77.85 10.32L74.29 10.32L74.29 7.17L77.85 7.17L77.85 10.32ZM97.59 22.9C97.59 23.23 97.55 23.58 97.46 23.94C97.39 24.31 97.27 24.68 97.11 25.04C96.94 25.4 96.73 25.75 96.46 26.08C96.21 26.41 95.89 26.7 95.52 26.96C95.16 27.21 94.73 27.41 94.25 27.57Q93.52 27.79 92.6 27.79L86.19 27.79C85.85 27.79 85.49 27.76 85.12 27.69C84.74 27.61 84.37 27.48 84 27.32C83.63 27.16 83.28 26.96 82.94 26.71C82.6 26.45 82.3 26.14 82.04 25.78C81.78 25.41 81.58 24.99 81.42 24.52Q81.19 23.8 81.19 22.9L81.19 7.17L84.75 7.17L84.75 22.9C84.75 23.33 84.89 23.67 85.16 23.93C85.43 24.18 85.78 24.31 86.19 24.31L92.6 24.31C93.05 24.31 93.4 24.18 93.64 23.92C93.9 23.66 94.03 23.32 94.03 22.9L94.03 18.18C94.03 17.74 93.9 17.4 93.63 17.16C93.37 16.91 93.02 16.78 92.6 16.78L86.19 16.78L86.19 13.29L92.6 13.29C92.94 13.29 93.3 13.33 93.67 13.42C94.05 13.49 94.42 13.6 94.78 13.76Q95.34 14.01 95.85 14.39C96.19 14.64 96.48 14.95 96.74 15.32C96.99 15.68 97.2 16.09 97.35 16.57C97.51 17.04 97.59 17.58 97.59 18.18L97.59 22.9ZM72.02 27.79L55.79 27.79C55.53 27.79 55.3 27.75 55.08 27.66C54.86 27.57 54.67 27.45 54.5 27.3C54.35 27.14 54.22 26.95 54.13 26.73C54.04 26.52 54 26.29 54 26.04L54 8.56L57.55 8.56L57.55 24.31L72.02 24.31L72.02 27.79ZM147.69 16.78L141.48 16.78L141.48 27.79L137.88 27.79L137.88 16.78L133.25 16.78L133.25 13.29L137.88 13.29L137.88 8.56L141.48 8.56L141.48 13.29L147.69 13.29L147.69 16.78ZM77.85 27.79L74.29 27.79L74.29 13.29L77.85 13.29L77.85 27.79ZM116.54 18.1Q116.54 18.82 116.28 19.67C116.11 20.22 115.83 20.74 115.43 21.22C115.05 21.7 114.54 22.09 113.92 22.41C113.29 22.74 112.54 22.9 111.64 22.9L105.22 22.9L105.22 19.58L111.64 19.58C112.13 19.58 112.5 19.44 112.77 19.16C113.03 18.86 113.16 18.5 113.16 18.07C113.16 17.61 113.01 17.26 112.71 17Q112.55 16.86 112.37 16.77Q112.05 16.61 111.64 16.61L105.22 16.61C104.74 16.61 104.37 16.75 104.1 17.05C103.84 17.34 103.7 17.69 103.7 18.12L103.7 22.99C103.7 23.46 103.85 23.82 104.14 24.08C104.44 24.34 104.81 24.47 105.25 24.47L111.64 24.47L111.64 27.79L105.22 27.79C104.73 27.79 104.2 27.71 103.62 27.54C103.06 27.37 102.53 27.1 102.04 26.72C101.55 26.34 101.15 25.84 100.82 25.23C100.49 24.61 100.32 23.87 100.32 22.99L100.32 18.1Q100.32 17.37 100.58 16.54Q100.65 16.31 100.75 16.1Q101 15.5 101.42 14.98C101.81 14.5 102.32 14.1 102.94 13.78C103.57 13.46 104.33 13.29 105.22 13.29L111.64 13.29C112.14 13.29 112.67 13.38 113.23 13.55Q113.48 13.62 113.73 13.73L113.73 13.73Q114.31 13.97 114.82 14.38C115.31 14.76 115.72 15.25 116.05 15.87C116.38 16.48 116.54 17.22 116.54 18.1ZM131.89 16.78L123.88 16.78C123.4 16.78 123.03 16.9 122.78 17.14C122.54 17.38 122.41 17.72 122.41 18.18L122.41 27.79L118.86 27.79L118.86 18.18C118.86 17.58 118.93 17.04 119.09 16.57C119.24 16.09 119.45 15.68 119.7 15.32C119.97 14.95 120.27 14.64 120.61 14.39C120.95 14.14 121.3 13.93 121.66 13.76C122.04 13.6 122.41 13.49 122.78 13.42Q123.36 13.29 123.85 13.29L131.89 13.29L131.89 16.78ZM161.37 27.79L154.95 27.79C154.44 27.79 153.89 27.71 153.31 27.54Q153.22 27.51 153.13 27.48L153.12 27.48Q152.36 27.22 151.69 26.71C151.19 26.31 150.77 25.81 150.44 25.19Q149.95 24.25 149.95 22.9L149.95 13.29L153.51 13.29L153.51 22.9C153.51 23.35 153.63 23.7 153.88 23.94Q154.25 24.31 154.97 24.31L161.37 24.31L161.37 27.79ZM166.35 29.19C166.35 29.79 166.27 30.32 166.12 30.8Q165.88 31.52 165.5 32.06C165.24 32.42 164.95 32.73 164.61 32.98Q164.1 33.37 163.54 33.61Q163 33.86 162.43 33.96C162.06 34.04 161.7 34.08 161.37 34.08L154.95 34.08L154.95 30.6L161.37 30.6Q162.07 30.6 162.42 30.25Q162.43 30.24 162.43 30.23C162.67 29.99 162.79 29.64 162.79 29.19L162.79 13.29L166.35 13.29L166.35 29.19Z" fill="#5752D8" fill-opacity="1.000000" fill-rule="evenodd"/>
	<path d="M93.67 13.42C93.3 13.33 92.94 13.29 92.6 13.29L86.19 13.29L86.19 13.39L86.19 16.68L86.19 16.78L92.6 16.78C93.02 16.78 93.37 16.91 93.63 17.16C93.9 17.4 94.03 17.74 94.03 18.18L94.03 22.9C94.03 23.32 93.9 23.66 93.64 23.92C93.4 24.18 93.05 24.31 92.6 24.31L86.19 24.31C85.78 24.31 85.43 24.18 85.16 23.93C84.89 23.67 84.75 23.33 84.75 22.9L84.75 7.17L81.19 7.17L81.19 7.27L81.19 22.9Q81.19 23.8 81.42 24.52C81.58 24.99 81.78 25.41 82.04 25.78C82.3 26.14 82.6 26.45 82.94 26.71C83.28 26.96 83.63 27.16 84 27.32C84.37 27.48 84.74 27.61 85.12 27.69C85.49 27.76 85.85 27.79 86.19 27.79L92.6 27.79Q93.52 27.79 94.25 27.57C94.73 27.41 95.16 27.21 95.52 26.96C95.89 26.7 96.21 26.41 96.46 26.08C96.73 25.75 96.94 25.4 97.11 25.04C97.27 24.68 97.39 24.31 97.46 23.94C97.55 23.58 97.59 23.23 97.59 22.9L97.59 18.18C97.59 17.58 97.51 17.04 97.35 16.57C97.2 16.09 96.99 15.68 96.74 15.32C96.48 14.95 96.19 14.64 95.85 14.39Q95.34 14.01 94.78 13.76C94.42 13.6 94.05 13.49 93.67 13.42ZM85.14 27.59Q85.69 27.69 86.19 27.69L92.6 27.69Q93.51 27.69 94.22 27.47Q94.93 27.25 95.46 26.88Q96.01 26.5 96.39 26.01Q96.78 25.53 97.02 25Q97.26 24.46 97.37 23.92L97.37 23.92L97.37 23.92Q97.49 23.38 97.49 22.9L97.49 18.18Q97.49 17.29 97.26 16.6Q97.03 15.9 96.66 15.38Q96.28 14.84 95.79 14.47Q95.29 14.09 94.74 13.86Q94.2 13.62 93.65 13.51L93.65 13.51L93.65 13.51Q93.1 13.39 92.6 13.39L86.29 13.39L86.29 16.68L92.6 16.68Q93.1 16.68 93.46 16.9Q93.59 16.98 93.7 17.08Q93.8 17.17 93.87 17.28Q94.13 17.63 94.13 18.18L94.13 22.9Q94.13 23.39 93.91 23.74Q93.83 23.87 93.72 23.99Q93.64 24.06 93.56 24.13Q93.19 24.41 92.6 24.41L86.19 24.41Q85.75 24.41 85.4 24.22Q85.23 24.13 85.09 24Q84.95 23.87 84.86 23.72Q84.65 23.37 84.65 22.9L84.65 7.27L81.29 7.27L81.29 22.9Q81.29 23.78 81.52 24.49Q81.75 25.19 82.12 25.72Q82.51 26.25 83 26.63Q83.5 27 84.04 27.23Q84.59 27.47 85.14 27.59ZM74.29 10.32L74.39 10.32L77.75 10.32L77.85 10.32L77.85 10.22L77.85 7.27L77.85 7.17L74.29 7.17L74.29 7.27L74.29 10.22L74.29 10.32ZM74.39 7.27L74.39 10.22L77.75 10.22L77.75 7.27L74.39 7.27ZM57.55 24.21L57.55 8.56L54 8.56L54 26.04C54 26.29 54.04 26.52 54.13 26.73C54.22 26.95 54.35 27.14 54.5 27.3C54.67 27.45 54.86 27.57 55.08 27.66C55.3 27.75 55.53 27.79 55.79 27.79L72.02 27.79L72.02 27.69L72.02 24.41L72.02 24.31L57.55 24.31L57.55 24.21ZM71.92 24.41L57.45 24.41L57.45 8.66L54.1 8.66L54.1 26.04Q54.1 26.38 54.21 26.67Q54.22 26.68 54.22 26.69Q54.33 26.95 54.5 27.15Q54.54 27.19 54.57 27.23Q54.58 27.24 54.59 27.25Q54.82 27.45 55.11 27.57Q55.42 27.69 55.79 27.69L71.92 27.69L71.92 24.41ZM141.58 16.78L141.48 16.78L141.48 16.88L141.48 27.69L141.48 27.79L137.88 27.79L137.88 16.78L133.25 16.78L133.25 16.68L133.25 13.39L133.25 13.29L137.88 13.29L137.88 8.56L137.98 8.56L141.48 8.56L141.48 8.66L141.48 13.19L141.48 13.29L147.69 13.29L147.69 13.39L147.69 16.68L147.69 16.78L141.58 16.78ZM147.59 16.68L141.38 16.68L141.38 27.69L137.98 27.69L137.98 16.68L133.35 16.68L133.35 13.39L137.98 13.39L137.98 8.66L141.38 8.66L141.38 13.39L147.59 13.39L147.59 16.68ZM162.43 33.96Q163 33.86 163.54 33.61Q164.1 33.37 164.61 32.98C164.95 32.73 165.24 32.42 165.5 32.06Q165.88 31.52 166.12 30.8C166.27 30.32 166.35 29.79 166.35 29.19L166.35 13.39L166.35 13.29L162.79 13.29L162.79 13.39L162.79 29.19C162.79 29.64 162.67 29.99 162.43 30.23Q162.43 30.24 162.42 30.25Q162.07 30.6 161.37 30.6L154.95 30.6L154.95 34.08L161.37 34.08C161.7 34.08 162.06 34.04 162.43 33.96ZM155.05 33.98L161.37 33.98Q161.86 33.98 162.41 33.86L162.41 33.86L162.42 33.86Q162.97 33.76 163.5 33.52Q164.05 33.29 164.55 32.9Q165.04 32.54 165.42 32Q165.79 31.48 166.02 30.77L166.02 30.77Q166.25 30.07 166.25 29.19L166.25 13.39L162.89 13.39L162.89 29.19Q162.89 29.86 162.56 30.25Q162.53 30.28 162.5 30.3Q162.49 30.32 162.47 30.34Q162.09 30.7 161.37 30.7L155.05 30.7L155.05 33.98ZM74.29 27.79L77.85 27.79L77.85 27.69L77.85 13.39L77.85 13.29L74.29 13.29L74.29 13.39L74.29 27.69L74.29 27.79ZM74.39 13.39L74.39 27.69L77.75 27.69L77.75 13.39L74.39 13.39ZM116.28 19.67Q116.54 18.82 116.54 18.1C116.54 17.22 116.38 16.48 116.05 15.87C115.72 15.25 115.31 14.76 114.82 14.38Q114.31 13.97 113.73 13.73L113.73 13.73Q113.48 13.62 113.23 13.55C112.67 13.38 112.14 13.29 111.64 13.29L105.22 13.29C104.33 13.29 103.57 13.46 102.94 13.78C102.32 14.1 101.81 14.5 101.42 14.98Q101 15.5 100.75 16.1Q100.65 16.31 100.58 16.54Q100.32 17.37 100.32 18.1L100.32 22.99C100.32 23.87 100.49 24.61 100.82 25.23C101.15 25.84 101.55 26.34 102.04 26.72C102.53 27.1 103.06 27.37 103.62 27.54C104.2 27.71 104.73 27.79 105.22 27.79L111.64 27.79L111.64 27.69L111.64 24.57L111.64 24.47L105.25 24.47C104.81 24.47 104.44 24.34 104.14 24.08C103.85 23.82 103.7 23.46 103.7 22.99L103.7 18.12C103.7 17.69 103.84 17.34 104.1 17.05C104.37 16.75 104.74 16.61 105.22 16.61L111.64 16.61Q112.05 16.61 112.37 16.77Q112.55 16.86 112.71 17C113.01 17.26 113.16 17.61 113.16 18.07C113.16 18.5 113.03 18.86 112.77 19.16C112.5 19.44 112.13 19.58 111.64 19.58L105.32 19.58L105.22 19.58L105.22 19.68L105.22 22.8L105.22 22.9L105.32 22.9L111.64 22.9C112.54 22.9 113.29 22.74 113.92 22.41C114.54 22.09 115.05 21.7 115.43 21.22C115.83 20.74 116.11 20.22 116.28 19.67ZM105.32 22.8L111.64 22.8Q112.96 22.8 113.87 22.33Q114.8 21.85 115.36 21.16Q115.92 20.46 116.18 19.67Q116.18 19.65 116.19 19.64L116.19 19.64Q116.44 18.81 116.44 18.1Q116.44 16.81 115.96 15.92Q115.48 15.01 114.76 14.46Q114.25 14.06 113.68 13.82Q113.45 13.72 113.2 13.65Q112.37 13.39 111.64 13.39L105.22 13.39Q103.91 13.39 102.98 13.87Q102.07 14.34 101.5 15.05Q101.09 15.56 100.84 16.14Q100.75 16.35 100.68 16.57Q100.42 17.39 100.42 18.1L100.42 22.99Q100.42 24.28 100.91 25.18Q101.39 26.08 102.1 26.64Q102.73 27.13 103.45 27.38Q103.55 27.41 103.65 27.44Q104.5 27.69 105.22 27.69L111.54 27.69L111.54 24.57L105.25 24.57Q104.78 24.57 104.4 24.37Q104.23 24.28 104.08 24.15Q103.95 24.04 103.86 23.91Q103.6 23.54 103.6 22.99L103.6 18.12Q103.6 17.66 103.8 17.31Q103.89 17.13 104.03 16.98Q104.13 16.87 104.24 16.79Q104.63 16.51 105.22 16.51L111.64 16.51Q112.07 16.51 112.41 16.68Q112.61 16.77 112.78 16.92Q112.93 17.05 113.04 17.22Q113.26 17.57 113.26 18.07Q113.26 18.51 113.09 18.86Q112.99 19.05 112.84 19.22Q112.75 19.32 112.65 19.39Q112.26 19.68 111.64 19.68L105.32 19.68L105.32 22.8ZM131.78 16.68L123.88 16.68Q123.13 16.68 122.73 17.06Q122.72 17.06 122.71 17.07Q122.68 17.11 122.64 17.15Q122.31 17.52 122.31 18.18L122.31 27.69L118.96 27.69L118.96 18.18Q118.96 17.29 119.18 16.6Q119.41 15.9 119.79 15.38Q120.17 14.84 120.67 14.47Q121.17 14.09 121.7 13.86Q122.25 13.62 122.8 13.51Q123.37 13.39 123.85 13.39L131.78 13.39L131.78 16.68ZM131.89 16.68L131.89 16.78L123.88 16.78C123.4 16.78 123.03 16.9 122.78 17.14C122.54 17.38 122.41 17.72 122.41 18.18L122.41 27.79L118.86 27.79L118.86 18.18C118.86 17.58 118.93 17.04 119.09 16.57C119.24 16.09 119.45 15.68 119.7 15.32C119.97 14.95 120.27 14.64 120.61 14.39C120.95 14.14 121.3 13.93 121.66 13.76C122.04 13.6 122.41 13.49 122.78 13.42Q123.36 13.29 123.85 13.29L131.89 13.29L131.89 13.39L131.89 16.68ZM161.27 27.69L154.95 27.69Q154.2 27.69 153.33 27.44Q153.25 27.42 153.17 27.39Q152.42 27.14 151.75 26.63Q151.02 26.05 150.53 25.14Q150.05 24.23 150.05 22.9L150.05 13.39L153.41 13.39L153.41 22.9Q153.41 23.55 153.73 23.93Q153.77 23.97 153.81 24.02Q153.82 24.02 153.83 24.03Q154.22 24.41 154.97 24.41L161.27 24.41L161.27 27.69ZM161.27 27.79L154.95 27.79C154.44 27.79 153.89 27.71 153.31 27.54Q153.22 27.51 153.13 27.48L153.12 27.48Q152.36 27.22 151.69 26.71C151.19 26.31 150.77 25.81 150.44 25.19Q149.95 24.25 149.95 22.9L149.95 13.39L149.95 13.29L153.51 13.29L153.51 13.39L153.51 22.9C153.51 23.35 153.63 23.7 153.88 23.94Q154.25 24.31 154.97 24.31L161.37 24.31L161.37 27.79L161.27 27.79Z" fill="#9BA9FB" fill-opacity="1.000000" fill-rule="evenodd"/>
	<path d="M77.85 9.15L74.29 9.15L74.29 6L77.85 6L77.85 9.15ZM97.59 21.73C97.59 22.06 97.55 22.41 97.46 22.77C97.39 23.14 97.27 23.51 97.11 23.87C96.94 24.23 96.73 24.58 96.46 24.91C96.21 25.24 95.89 25.53 95.52 25.79C95.16 26.04 94.73 26.24 94.25 26.39Q93.52 26.62 92.6 26.62L86.19 26.62C85.85 26.62 85.49 26.59 85.12 26.52C84.74 26.43 84.37 26.31 84 26.15C83.63 25.99 83.28 25.79 82.94 25.54C82.6 25.28 82.3 24.97 82.04 24.61C81.78 24.24 81.58 23.82 81.42 23.35Q81.19 22.63 81.19 21.73L81.19 6L84.75 6L84.75 21.73C84.75 22.16 84.89 22.5 85.16 22.76C85.43 23.01 85.78 23.14 86.19 23.14L92.6 23.14C93.05 23.14 93.4 23.01 93.64 22.75C93.9 22.49 94.03 22.15 94.03 21.73L94.03 17.01C94.03 16.57 93.9 16.23 93.63 15.99C93.37 15.74 93.02 15.61 92.6 15.61L86.19 15.61L86.19 12.12L92.6 12.12C92.94 12.12 93.3 12.16 93.67 12.25C94.05 12.32 94.42 12.43 94.78 12.59Q95.34 12.84 95.85 13.22C96.19 13.47 96.48 13.78 96.74 14.15C96.99 14.51 97.2 14.92 97.35 15.4C97.51 15.87 97.59 16.41 97.59 17.01L97.59 21.73ZM72.02 26.62L55.79 26.62C55.53 26.62 55.3 26.58 55.08 26.49C54.86 26.4 54.67 26.28 54.5 26.13C54.35 25.97 54.22 25.78 54.13 25.56C54.04 25.35 54 25.12 54 24.87L54 7.39L57.55 7.39L57.55 23.14L72.02 23.14L72.02 26.62ZM147.69 15.61L141.48 15.61L141.48 26.62L137.88 26.62L137.88 15.61L133.25 15.61L133.25 12.12L137.88 12.12L137.88 7.39L141.48 7.39L141.48 12.12L147.69 12.12L147.69 15.61ZM77.85 26.62L74.29 26.62L74.29 12.12L77.85 12.12L77.85 26.62ZM116.54 16.93Q116.54 17.65 116.28 18.5C116.11 19.05 115.83 19.57 115.43 20.05C115.05 20.52 114.54 20.92 113.92 21.24C113.29 21.57 112.54 21.73 111.64 21.73L105.22 21.73L105.22 18.41L111.64 18.41C112.13 18.41 112.5 18.27 112.77 17.99C113.03 17.69 113.16 17.33 113.16 16.9C113.16 16.44 113.01 16.09 112.71 15.83Q112.55 15.69 112.37 15.6Q112.05 15.44 111.64 15.44L105.22 15.44C104.74 15.44 104.37 15.58 104.1 15.88C103.84 16.17 103.7 16.52 103.7 16.95L103.7 21.82C103.7 22.29 103.85 22.65 104.14 22.91C104.44 23.17 104.81 23.3 105.25 23.3L111.64 23.3L111.64 26.62L105.22 26.62C104.73 26.62 104.2 26.54 103.62 26.37C103.06 26.2 102.53 25.93 102.04 25.55C101.55 25.17 101.15 24.67 100.82 24.06C100.49 23.44 100.32 22.7 100.32 21.82L100.32 16.93Q100.32 16.2 100.58 15.37Q100.65 15.14 100.75 14.93Q101 14.33 101.42 13.81C101.81 13.33 102.32 12.93 102.94 12.61C103.57 12.29 104.33 12.12 105.22 12.12L111.64 12.12C112.14 12.12 112.67 12.21 113.23 12.38Q113.48 12.45 113.73 12.56L113.73 12.56Q114.31 12.8 114.82 13.21C115.31 13.59 115.72 14.08 116.05 14.7C116.38 15.31 116.54 16.05 116.54 16.93ZM131.89 15.61L123.88 15.61C123.4 15.61 123.03 15.73 122.78 15.97C122.54 16.21 122.41 16.55 122.41 17.01L122.41 26.62L118.86 26.62L118.86 17.01C118.86 16.41 118.93 15.87 119.09 15.4C119.24 14.92 119.45 14.51 119.7 14.15C119.97 13.78 120.27 13.47 120.61 13.22C120.95 12.96 121.3 12.75 121.66 12.59C122.04 12.43 122.41 12.32 122.78 12.25Q123.36 12.12 123.85 12.12L131.89 12.12L131.89 15.61ZM161.37 26.62L154.95 26.62C154.44 26.62 153.89 26.54 153.31 26.37Q153.22 26.34 153.13 26.31L153.12 26.31Q152.36 26.05 151.69 25.54C151.19 25.14 150.77 24.64 150.44 24.02Q149.95 23.08 149.95 21.73L149.95 12.12L153.51 12.12L153.51 21.73C153.51 22.18 153.63 22.53 153.88 22.77Q154.25 23.14 154.97 23.14L161.37 23.14L161.37 26.62ZM166.35 28.02C166.35 28.62 166.27 29.15 166.12 29.63Q165.88 30.35 165.5 30.89C165.24 31.25 164.95 31.56 164.61 31.81Q164.1 32.2 163.54 32.44Q163 32.68 162.43 32.79C162.06 32.87 161.7 32.91 161.37 32.91L154.95 32.91L154.95 29.43L161.37 29.43Q162.07 29.43 162.42 29.08Q162.43 29.07 162.43 29.06C162.67 28.82 162.79 28.47 162.79 28.02L162.79 12.12L166.35 12.12L166.35 28.02Z" fill="#6C6EE7" fill-opacity="1.000000" fill-rule="evenodd"/>
	<path d="M93.67 12.25C93.3 12.16 92.94 12.12 92.6 12.12L86.19 12.12L86.19 12.22L86.19 15.51L86.19 15.61L92.6 15.61C93.02 15.61 93.37 15.74 93.63 15.99C93.9 16.23 94.03 16.57 94.03 17.01L94.03 21.73C94.03 22.15 93.9 22.49 93.64 22.75C93.4 23.01 93.05 23.14 92.6 23.14L86.19 23.14C85.78 23.14 85.43 23.01 85.16 22.76C84.89 22.5 84.75 22.16 84.75 21.73L84.75 6L81.19 6L81.19 6.1L81.19 21.73Q81.19 22.63 81.42 23.35C81.58 23.82 81.78 24.24 82.04 24.61C82.3 24.97 82.6 25.28 82.94 25.54C83.28 25.79 83.63 25.99 84 26.15C84.37 26.31 84.74 26.43 85.12 26.52C85.49 26.59 85.85 26.62 86.19 26.62L92.6 26.62Q93.52 26.62 94.25 26.39C94.73 26.24 95.16 26.04 95.52 25.79C95.89 25.53 96.21 25.24 96.46 24.91C96.73 24.58 96.94 24.23 97.11 23.87C97.27 23.51 97.39 23.14 97.46 22.77C97.55 22.41 97.59 22.06 97.59 21.73L97.59 17.01C97.59 16.41 97.51 15.87 97.35 15.4C97.2 14.92 96.99 14.51 96.74 14.15C96.48 13.78 96.19 13.47 95.85 13.22Q95.34 12.84 94.78 12.59C94.42 12.43 94.05 12.32 93.67 12.25ZM85.14 26.42Q85.69 26.52 86.19 26.52L92.6 26.52Q93.51 26.52 94.22 26.3Q94.93 26.08 95.46 25.71Q96.01 25.33 96.39 24.84Q96.78 24.36 97.02 23.83Q97.26 23.29 97.37 22.75L97.37 22.75L97.37 22.75Q97.49 22.21 97.49 21.73L97.49 17.01Q97.49 16.12 97.26 15.43Q97.03 14.73 96.66 14.21Q96.28 13.67 95.79 13.3Q95.29 12.92 94.74 12.69Q94.2 12.45 93.65 12.34L93.65 12.34L93.65 12.34Q93.1 12.22 92.6 12.22L86.29 12.22L86.29 15.51L92.6 15.51Q93.1 15.51 93.46 15.73Q93.59 15.81 93.7 15.91Q93.8 16 93.87 16.11Q94.13 16.46 94.13 17.01L94.13 21.73Q94.13 22.22 93.91 22.57Q93.83 22.7 93.72 22.82Q93.64 22.89 93.56 22.96Q93.19 23.24 92.6 23.24L86.19 23.24Q85.75 23.24 85.4 23.05Q85.23 22.96 85.09 22.83Q84.95 22.7 84.86 22.55Q84.65 22.2 84.65 21.73L84.65 6.1L81.29 6.1L81.29 21.73Q81.29 22.61 81.52 23.32Q81.75 24.02 82.12 24.55Q82.51 25.08 83 25.46Q83.5 25.82 84.04 26.06Q84.59 26.3 85.14 26.42ZM74.29 9.15L74.39 9.15L77.75 9.15L77.85 9.15L77.85 9.05L77.85 6.1L77.85 6L74.29 6L74.29 6.1L74.29 9.05L74.29 9.15ZM74.39 6.1L74.39 9.05L77.75 9.05L77.75 6.1L74.39 6.1ZM57.55 23.04L57.55 7.39L54 7.39L54 24.87C54 25.12 54.04 25.35 54.13 25.56C54.22 25.78 54.35 25.97 54.5 26.13C54.67 26.28 54.86 26.4 55.08 26.49C55.3 26.58 55.53 26.62 55.79 26.62L72.02 26.62L72.02 26.52L72.02 23.24L72.02 23.14L57.55 23.14L57.55 23.04ZM71.92 23.24L57.45 23.24L57.45 7.49L54.1 7.49L54.1 24.87Q54.1 25.21 54.21 25.5Q54.22 25.51 54.22 25.52Q54.33 25.78 54.5 25.98Q54.54 26.02 54.57 26.06Q54.58 26.07 54.59 26.08Q54.82 26.28 55.11 26.4Q55.42 26.52 55.79 26.52L71.92 26.52L71.92 23.24ZM141.58 15.61L141.48 15.61L141.48 15.71L141.48 26.52L141.48 26.62L137.88 26.62L137.88 15.61L133.25 15.61L133.25 15.51L133.25 12.22L133.25 12.12L137.88 12.12L137.88 7.39L137.98 7.39L141.48 7.39L141.48 7.49L141.48 12.02L141.48 12.12L147.69 12.12L147.69 12.22L147.69 15.51L147.69 15.61L141.58 15.61ZM147.59 15.51L141.38 15.51L141.38 26.52L137.98 26.52L137.98 15.51L133.35 15.51L133.35 12.22L137.98 12.22L137.98 7.49L141.38 7.49L141.38 12.22L147.59 12.22L147.59 15.51ZM162.43 32.79Q163 32.68 163.54 32.44Q164.1 32.2 164.61 31.81C164.95 31.56 165.24 31.25 165.5 30.89Q165.88 30.35 166.12 29.63C166.27 29.15 166.35 28.62 166.35 28.02L166.35 12.22L166.35 12.12L162.79 12.12L162.79 12.22L162.79 28.02C162.79 28.47 162.67 28.82 162.43 29.06Q162.43 29.07 162.42 29.08Q162.07 29.43 161.37 29.43L154.95 29.43L154.95 32.91L161.37 32.91C161.7 32.91 162.06 32.87 162.43 32.79ZM155.05 32.81L161.37 32.81Q161.86 32.81 162.41 32.69L162.41 32.69L162.42 32.69Q162.97 32.59 163.5 32.35Q164.05 32.12 164.55 31.73Q165.04 31.37 165.42 30.83Q165.79 30.31 166.02 29.6L166.02 29.6Q166.25 28.9 166.25 28.02L166.25 12.22L162.89 12.22L162.89 28.02Q162.89 28.69 162.56 29.08Q162.53 29.11 162.5 29.13Q162.49 29.15 162.47 29.17Q162.09 29.53 161.37 29.53L155.05 29.53L155.05 32.81ZM74.29 26.62L77.85 26.62L77.85 26.52L77.85 12.22L77.85 12.12L74.29 12.12L74.29 12.22L74.29 26.52L74.29 26.62ZM74.39 12.22L74.39 26.52L77.75 26.52L77.75 12.22L74.39 12.22ZM116.28 18.5Q116.54 17.65 116.54 16.93C116.54 16.05 116.38 15.31 116.05 14.7C115.72 14.08 115.31 13.59 114.82 13.21Q114.31 12.8 113.73 12.56L113.73 12.56Q113.48 12.45 113.23 12.38C112.67 12.21 112.14 12.12 111.64 12.12L105.22 12.12C104.33 12.12 103.57 12.29 102.94 12.61C102.32 12.93 101.81 13.33 101.42 13.81Q101 14.33 100.75 14.93Q100.65 15.14 100.58 15.37Q100.32 16.2 100.32 16.93L100.32 21.82C100.32 22.7 100.49 23.44 100.82 24.06C101.15 24.67 101.55 25.17 102.04 25.55C102.53 25.93 103.06 26.2 103.62 26.37C104.2 26.54 104.73 26.62 105.22 26.62L111.64 26.62L111.64 26.52L111.64 23.4L111.64 23.3L105.25 23.3C104.81 23.3 104.44 23.17 104.14 22.91C103.85 22.65 103.7 22.29 103.7 21.82L103.7 16.95C103.7 16.52 103.84 16.17 104.1 15.88C104.37 15.58 104.74 15.44 105.22 15.44L111.64 15.44Q112.05 15.44 112.37 15.6Q112.55 15.69 112.71 15.83C113.01 16.09 113.16 16.44 113.16 16.9C113.16 17.33 113.03 17.69 112.77 17.99C112.5 18.27 112.13 18.41 111.64 18.41L105.32 18.41L105.22 18.41L105.22 18.51L105.22 21.63L105.22 21.73L105.32 21.73L111.64 21.73C112.54 21.73 113.29 21.57 113.92 21.24C114.54 20.92 115.05 20.52 115.43 20.05C115.83 19.57 116.11 19.05 116.28 18.5ZM105.32 21.63L111.64 21.63Q112.96 21.63 113.87 21.16Q114.8 20.68 115.36 19.99Q115.92 19.29 116.18 18.5Q116.18 18.48 116.19 18.47L116.19 18.47Q116.44 17.63 116.44 16.93Q116.44 15.64 115.96 14.75Q115.48 13.84 114.76 13.29Q114.25 12.89 113.68 12.65Q113.45 12.55 113.2 12.47Q112.37 12.22 111.64 12.22L105.22 12.22Q103.91 12.22 102.98 12.7Q102.07 13.17 101.5 13.88Q101.09 14.39 100.84 14.97Q100.75 15.18 100.68 15.4Q100.42 16.22 100.42 16.93L100.42 21.82Q100.42 23.11 100.91 24.01Q101.39 24.91 102.1 25.47Q102.73 25.95 103.45 26.21Q103.55 26.24 103.65 26.27Q104.5 26.52 105.22 26.52L111.54 26.52L111.54 23.4L105.25 23.4Q104.78 23.4 104.4 23.2Q104.23 23.11 104.08 22.98Q103.95 22.87 103.86 22.74Q103.6 22.37 103.6 21.82L103.6 16.95Q103.6 16.49 103.8 16.14Q103.89 15.96 104.03 15.81Q104.13 15.7 104.24 15.62Q104.63 15.34 105.22 15.34L111.64 15.34Q112.07 15.34 112.41 15.51Q112.61 15.6 112.78 15.75Q112.93 15.88 113.04 16.05Q113.26 16.4 113.26 16.9Q113.26 17.34 113.09 17.69Q112.99 17.88 112.84 18.05Q112.75 18.15 112.65 18.22Q112.26 18.51 111.64 18.51L105.32 18.51L105.32 21.63ZM131.78 15.51L123.88 15.51Q123.13 15.51 122.73 15.89Q122.72 15.89 122.71 15.9Q122.68 15.94 122.64 15.98Q122.31 16.35 122.31 17.01L122.31 26.52L118.96 26.52L118.96 17.01Q118.96 16.12 119.18 15.43Q119.41 14.73 119.79 14.21Q120.17 13.67 120.67 13.3Q121.17 12.92 121.7 12.69Q122.25 12.45 122.8 12.34Q123.37 12.22 123.85 12.22L131.78 12.22L131.78 15.51ZM131.89 15.51L131.89 15.61L123.88 15.61C123.4 15.61 123.03 15.73 122.78 15.97C122.54 16.21 122.41 16.55 122.41 17.01L122.41 26.62L118.86 26.62L118.86 17.01C118.86 16.41 118.93 15.87 119.09 15.4C119.24 14.92 119.45 14.51 119.7 14.15C119.97 13.78 120.27 13.47 120.61 13.22C120.95 12.96 121.3 12.75 121.66 12.59C122.04 12.43 122.41 12.32 122.78 12.25Q123.36 12.12 123.85 12.12L131.89 12.12L131.89 12.22L131.89 15.51ZM161.27 26.52L154.95 26.52Q154.2 26.52 153.33 26.27Q153.25 26.25 153.17 26.22Q152.42 25.97 151.75 25.46Q151.02 24.88 150.53 23.97Q150.05 23.06 150.05 21.73L150.05 12.22L153.41 12.22L153.41 21.73Q153.41 22.38 153.73 22.76Q153.77 22.8 153.81 22.84Q153.82 22.85 153.83 22.86Q154.22 23.24 154.97 23.24L161.27 23.24L161.27 26.52ZM161.27 26.62L154.95 26.62C154.44 26.62 153.89 26.54 153.31 26.37Q153.22 26.34 153.13 26.31L153.12 26.31Q152.36 26.05 151.69 25.54C151.19 25.14 150.77 24.64 150.44 24.02Q149.95 23.08 149.95 21.73L149.95 12.22L149.95 12.12L153.51 12.12L153.51 12.22L153.51 21.73C153.51 22.18 153.63 22.53 153.88 22.77Q154.25 23.14 154.97 23.14L161.37 23.14L161.37 26.62L161.27 26.62Z" fill="#9BA9FB" fill-opacity="1.000000" fill-rule="evenodd"/>
	<rect x="146.457031" y="30.577194" width="3.511028" height="3.511028" fill="#9BA9FB" fill-opacity="1.000000"/>
	<rect x="138.264648" y="30.577194" width="3.511028" height="3.511028" fill="#9BA9FB" fill-opacity="1.000000"/>
	<rect x="130.072266" y="30.577194" width="3.511028" height="3.511028" fill="#9BA9FB" fill-opacity="1.000000"/>
</svg>
