<svg width="28.000000" height="28.000000" viewBox="0 0 28 28" fill="none" xmlns="http://www.w3.org/2000/svg" xmlns:xlink="http://www.w3.org/1999/xlink">
	<desc>
			Created with Pixso.
	</desc>
	<defs>
		<clipPath id="clip177_15">
			<rect id="fi_4774390" rx="-0.500000" width="27.000000" height="27.000000" transform="translate(0.500000 0.500000)" fill="white" fill-opacity="0"/>
		</clipPath>
	</defs>
	<rect id="fi_4774390" rx="-0.500000" width="27.000000" height="27.000000" transform="translate(0.500000 0.500000)" fill="#FFFFFF" fill-opacity="0"/>
	<g clip-path="url(#clip177_15)">
		<path id="Vector" d="M21.6 8.38C21.33 8.35 21.14 8.12 21.17 7.86L21.33 6.11L12.87 12.74C12.67 12.89 12.39 12.87 12.22 12.69L10 10.31L4.03 14.98C3.95 15.05 3.84 15.08 3.74 15.08C3.6 15.08 3.46 15.02 3.36 14.9C3.2 14.69 3.24 14.39 3.44 14.23L9.75 9.29C9.94 9.13 10.22 9.16 10.39 9.33L12.62 11.72L20.66 5.41L19.01 5.25C18.74 5.23 18.55 5 18.57 4.74C18.59 4.47 18.82 4.28 19.09 4.3L21.95 4.57C22.08 4.57 22.2 4.63 22.29 4.75C22.38 4.86 22.4 4.99 22.38 5.12L22.12 7.95C22.1 8.19 21.89 8.38 21.64 8.38L21.6 8.38Z" fill="#6C6EE7" fill-opacity="1.000000" fill-rule="nonzero"/>
		<path id="Vector" d="M19.52 15.56L19.52 23.69C19.52 23.95 19.31 24.17 19.04 24.17L16.17 24.17C15.91 24.17 15.7 23.95 15.7 23.69L15.7 17.95C15.7 17.81 15.76 17.67 15.87 17.58L18.74 15.19C18.88 15.08 19.08 15.05 19.25 15.13C19.41 15.21 19.52 15.37 19.52 15.56Z" fill="#6C6EE7" fill-opacity="1.000000" fill-rule="nonzero"/>
		<path id="Vector" d="M13.78 16.04L13.78 23.69C13.78 23.95 13.57 24.17 13.31 24.17L10.44 24.17C10.17 24.17 9.96 23.95 9.96 23.69L9.96 17.95C9.96 17.79 10.03 17.65 10.17 17.55L13.04 15.64C13.19 15.55 13.37 15.54 13.53 15.62C13.68 15.7 13.78 15.86 13.78 16.04Z" fill="#6C6EE7" fill-opacity="1.000000" fill-rule="nonzero"/>
		<path id="Vector" d="M25.26 8.39L25.26 23.69C25.26 23.95 25.05 24.17 24.78 24.17L21.91 24.17C21.65 24.17 21.43 23.95 21.43 23.69L21.43 10.78C21.43 10.64 21.5 10.5 21.61 10.41L24.48 8.02C24.62 7.9 24.82 7.87 24.98 7.96C25.15 8.03 25.26 8.2 25.26 8.39Z" fill="#6C6EE7" fill-opacity="1.000000" fill-rule="nonzero"/>
		<path id="Vector" d="M8.04 20.34L8.04 23.69C8.04 23.95 7.83 24.17 7.57 24.17L4.7 24.17C4.43 24.17 4.22 23.95 4.22 23.69L4.22 22.26C4.22 22.1 4.29 21.95 4.43 21.86L7.3 19.95C7.45 19.85 7.63 19.84 7.79 19.92C7.94 20.01 8.04 20.17 8.04 20.34Z" fill="#6C6EE7" fill-opacity="1.000000" fill-rule="nonzero"/>
	</g>
</svg>
