<svg width="24.000000" height="24.000000" viewBox="0 0 24 24" fill="none" xmlns="http://www.w3.org/2000/svg" xmlns:xlink="http://www.w3.org/1999/xlink">
	<desc>
			Created with Pixso.
	</desc>
	<defs>
		<clipPath id="clip212_53">
			<rect id="iconoir:eye-solid" width="24.000000" height="24.000000" fill="white" fill-opacity="0"/>
		</clipPath>
	</defs>
	<rect id="iconoir:eye-solid" width="24.000000" height="24.000000" fill="#FFFFFF" fill-opacity="0"/>
	<g clip-path="url(#clip212_53)">
		<path id="Vector" d="M3 13C6.6 5 17.4 5 21 13" stroke="#9BA9FB" stroke-opacity="1.000000" stroke-width="1.500000" stroke-linejoin="round" stroke-linecap="round"/>
		<path id="Vector" d="M12 17C11.6 17 11.21 16.92 10.85 16.77C10.48 16.62 10.15 16.39 9.87 16.12C9.6 15.84 9.37 15.51 9.22 15.14C9.07 14.78 9 14.39 9 14C9 13.6 9.07 13.21 9.22 12.85C9.37 12.48 9.6 12.15 9.87 11.87C10.15 11.6 10.48 11.37 10.85 11.22C11.21 11.07 11.6 11 12 11C12.79 11 13.55 11.31 14.12 11.87C14.68 12.44 15 13.2 15 14C15 14.79 14.68 15.55 14.12 16.12C13.55 16.68 12.79 17 12 17Z" fill="#9BA9FB" fill-opacity="1.000000" fill-rule="nonzero"/>
		<path id="Vector" d="M10.85 16.77C10.48 16.62 10.15 16.39 9.87 16.12C9.6 15.84 9.37 15.51 9.22 15.14C9.07 14.78 9 14.39 9 14C9 13.6 9.07 13.21 9.22 12.85C9.37 12.48 9.6 12.15 9.87 11.87C10.15 11.6 10.48 11.37 10.85 11.22C11.21 11.07 11.6 11 12 11C12.79 11 13.55 11.31 14.12 11.87C14.68 12.44 15 13.2 15 14C15 14.79 14.68 15.55 14.12 16.12C13.55 16.68 12.79 17 12 17C11.6 17 11.21 16.92 10.85 16.77Z" stroke="#9BA9FB" stroke-opacity="1.000000" stroke-width="1.500000" stroke-linejoin="round"/>
	</g>
</svg>
