<svg width="102.000000" height="32.000000" viewBox="0 0 102 32" fill="none" xmlns="http://www.w3.org/2000/svg" xmlns:xlink="http://www.w3.org/1999/xlink">
	<desc>
			Created with Pixso.
	</desc>
	<defs>
		<clipPath id="clip201_265">
			<rect id="logo" rx="14.410256" width="28.820513" height="28.820513" transform="translate(1.089722 1.089752)" fill="white" fill-opacity="0"/>
		</clipPath>
		<linearGradient x1="21.255951" y1="3.028740" x2="8.483841" y2="25.812782" id="paint_linear_201_265_0" gradientUnits="userSpaceOnUse">
			<stop stop-color="#9FADFC"/>
			<stop offset="0.617168" stop-color="#97A5FA"/>
			<stop offset="0.986817" stop-color="#6C6EE7"/>
		</linearGradient>
		<linearGradient x1="15.499978" y1="1.589752" x2="15.499978" y2="29.410265" id="paint_linear_201_265_1" gradientUnits="userSpaceOnUse">
			<stop stop-color="#7174EA"/>
			<stop offset="1.000000" stop-color="#9DABFC"/>
		</linearGradient>
	</defs>
	<path id="PAY" d="M67.2 9.75Q65.33 8.2 62.07 8.2L55.51 8.2L55.51 25L57.92 25L57.92 19.91L62.07 19.91Q65.33 19.91 67.2 18.35Q67.84 17.81 68.27 17.14Q69.07 15.84 69.07 14.05Q69.07 12.25 68.26 10.96Q67.84 10.29 67.2 9.75ZM71.69 25L73.54 20.79L82.47 20.79L84.31 25L86.83 25L79.2 8.2L76.83 8.2L69.22 25L71.69 25ZM94.76 25L94.76 19.19L101.42 8.2L99.05 8.2L93.65 17.05L88.28 8.2L85.71 8.2L92.38 19.14L92.38 25L94.76 25ZM65.48 16.85Q64.27 17.82 62 17.82L57.92 17.82L57.92 10.28L62 10.28Q64.27 10.28 65.48 11.25Q65.82 11.53 66.06 11.88Q66.68 12.75 66.68 14.05Q66.68 15.36 66.06 16.24Q65.81 16.58 65.48 16.85ZM78 10.65L81.63 18.88L74.38 18.88L78 10.65Z" fill="#5752D8" fill-opacity="1.000000" fill-rule="evenodd"/>
	<circle id="Ellipse 8" cx="15.500000" cy="15.500000" r="15.500000" fill="#8C96F6" fill-opacity="1.000000"/>
	<rect id="logo" rx="14.410256" width="28.820513" height="28.820513" transform="translate(1.089722 1.089752)" fill="#97A5FA" fill-opacity="1.000000"/>
	<rect id="logo" rx="14.410256" width="28.820513" height="28.820513" transform="translate(1.089722 1.089752)" fill="url(#paint_linear_201_265_0)" fill-opacity="1.000000"/>
	<g clip-path="url(#clip201_265)">
		<path id="Vector" d="M41.48 26.41L8.07 25.75C7.55 25.74 7.06 25.58 6.6 25.26C6.14 24.97 5.78 24.57 5.53 24.05C5.28 23.55 5.18 23.02 5.22 22.46C5.26 21.92 5.43 21.44 5.73 21L25.55 -5.88L28.47 0.03L13.63 20.06L38.57 20.53L41.48 26.41Z" fill="#3328BA" fill-opacity="0.500000" fill-rule="nonzero"/>
		<path id="Vector" d="M39.58 25.27L6.17 24.61C5.65 24.6 5.16 24.44 4.71 24.12C4.24 23.83 3.88 23.43 3.63 22.91C3.38 22.41 3.28 21.88 3.32 21.32C3.36 20.78 3.53 20.3 3.83 19.86L23.66 -7.02L26.57 -1.11L11.73 18.92L36.67 19.39L39.58 25.27Z" fill="#C7D2FE" fill-opacity="1.000000" fill-rule="nonzero"/>
		<rect id="Rectangle 4307" x="22.825745" y="20.921265" width="2.000000" height="2.000000" transform="rotate(2.0082 22.825745 20.921265)" fill="#9BA9FB" fill-opacity="1.000000"/>
		<rect id="Rectangle 4308" x="17.828857" y="20.746048" width="2.000000" height="2.000000" transform="rotate(2.0082 17.828857 20.746048)" fill="#9BA9FB" fill-opacity="1.000000"/>
		<rect id="Rectangle 4309" x="12.831909" y="20.570831" width="2.000000" height="2.000000" transform="rotate(2.0082 12.831909 20.570831)" fill="#9BA9FB" fill-opacity="1.000000"/>
	</g>
	<rect id="logo" rx="14.410256" width="28.820513" height="28.820513" transform="translate(1.089722 1.089752)" stroke="url(#paint_linear_201_265_1)" stroke-opacity="1.000000" stroke-width="1.000000"/>
</svg>
