<svg width="28.000000" height="28.000000" viewBox="0 0 28 28" fill="none" xmlns="http://www.w3.org/2000/svg" xmlns:xlink="http://www.w3.org/1999/xlink">
	<desc>
			Created with Pixso.
	</desc>
	<defs>
		<clipPath id="clip177_11">
			<rect id="simple-icons:litecoin" width="28.000000" height="28.000000" fill="white" fill-opacity="0"/>
		</clipPath>
	</defs>
	<rect id="simple-icons:litecoin" width="28.000000" height="28.000000" fill="#FFFFFF" fill-opacity="0"/>
	<g clip-path="url(#clip177_11)">
		<path id="Vector" d="M14 0C11.23 0 8.52 0.82 6.22 2.35C3.91 3.89 2.12 6.08 1.06 8.64C0 11.2 -0.28 14.01 0.26 16.73C0.8 19.44 2.14 21.94 4.1 23.89C6.05 25.85 8.55 27.19 11.26 27.73C13.98 28.27 16.79 27.99 19.35 26.93C21.91 25.87 24.1 24.08 25.64 21.77C27.17 19.47 28 16.76 28 14C28 10.28 26.52 6.72 23.89 4.1C21.27 1.47 17.71 0 14 0ZM13.69 4.29L16.7 4.29C16.77 4.29 16.83 4.3 16.88 4.33C16.94 4.36 16.99 4.4 17.02 4.44C17.06 4.49 17.08 4.55 17.1 4.61C17.11 4.67 17.11 4.73 17.09 4.79L14.72 12.86L16.94 12.19L16.47 13.8L14.22 14.45L12.77 19.37L20.56 19.37C20.62 19.37 20.68 19.39 20.73 19.41C20.79 19.44 20.84 19.48 20.87 19.53C20.91 19.58 20.94 19.64 20.95 19.7C20.96 19.76 20.96 19.82 20.94 19.88L20.26 22.21C20.23 22.33 20.16 22.42 20.07 22.49C19.97 22.56 19.86 22.6 19.75 22.6L7.85 22.6L9.86 15.81L7.64 16.48L8.13 14.9L10.35 14.22L13.18 4.68C13.21 4.56 13.28 4.47 13.37 4.4C13.46 4.32 13.57 4.29 13.69 4.29L13.69 4.29Z" fill="#9BA9FB" fill-opacity="1.000000" fill-rule="evenodd"/>
	</g>
</svg>
