<svg width="26" height="27" viewBox="0 0 26 27" fill="none" xmlns="http://www.w3.org/2000/svg">
<g clip-path="url(#clip0_390_281)">
<path d="M29.3808 25.7199L3.96121 25.2189C3.56763 25.2082 3.1969 25.0838 2.849 24.8459C2.49642 24.623 2.22368 24.3159 2.03079 23.9247C1.84298 23.5438 1.76547 23.1405 1.79826 22.7148C1.82637 22.3042 1.95345 21.9344 2.17952 21.6054L17.2668 1.15114L19.4825 5.64486L8.195 20.8854L27.1727 21.2416L29.3808 25.7199Z" fill="#5752D8"/>
<path d="M27.9354 24.3115L2.51581 23.8105C2.12223 23.7998 1.7515 23.6754 1.4036 23.4374C1.05102 23.2145 0.778284 22.9075 0.585395 22.5163C0.397582 22.1354 0.320071 21.7321 0.352862 21.3064C0.380968 20.8958 0.508054 20.526 0.73412 20.197L15.8214 -0.257296L18.0371 4.23643L6.7496 19.4769L25.7273 19.8332L27.9354 24.3115Z" fill="#C7D2FE"/>
<path d="M18.6914 20.5665L20.4373 20.59L20.4138 22.3359L18.6679 22.3124L18.6914 20.5665Z" fill="#9BA9FB"/>
<path d="M15.2539 20.5202L16.9998 20.5437L16.9763 22.2896L15.2304 22.2661L15.2539 20.5202Z" fill="#9BA9FB"/>
<path d="M11.7188 20.4726L13.4646 20.4961L13.4411 22.242L11.6952 22.2185L11.7188 20.4726Z" fill="#9BA9FB"/>
</g>
<defs>
<clipPath id="clip0_390_281">
<rect width="25.2024" height="27.0026" fill="white"/>
</clipPath>
</defs>
</svg>
